<svg width="107" height="27" viewBox="0 0 107 27" fill="none" xmlns="http://www.w3.org/2000/svg">
<path d="M14.3468 8.24553C14.9084 9.34005 13.8544 10.4131 12.6139 10.4131H10.5456C10.0229 10.4131 9.61765 9.97368 9.27902 9.57965C9.07859 9.34642 8.8194 9.16806 8.50146 9.04459C8.19044 8.91425 7.84485 8.84908 7.46471 8.84908C6.97399 8.84908 6.55237 8.93826 6.19988 9.11662C5.84738 9.29497 5.67459 9.54878 5.6815 9.87805C5.67459 10.1113 5.77481 10.3274 5.98216 10.5263C6.19642 10.7252 6.60767 10.8796 7.21589 10.9893L10.4505 11.5655C12.0817 11.8605 13.2947 12.3578 14.0895 13.0575C14.8913 13.7504 15.2956 14.6799 15.3025 15.846C15.2956 16.971 14.957 17.9486 14.2865 18.7786C13.623 19.6018 12.7141 20.2397 11.5599 20.6925C10.4125 21.1383 9.10278 21.3613 7.63059 21.3613C5.19769 21.3613 3.29353 20.8674 1.91811 19.8796C1.25382 19.4001 0.732025 18.8462 0.352732 18.218C-0.308382 17.1231 0.743181 15.9695 2.03221 15.9695H3.87124C4.69727 15.9695 5.3646 16.6831 6.05473 17.1322C6.48326 17.3998 7.02237 17.5335 7.67206 17.5335C8.19735 17.5335 8.62933 17.4444 8.968 17.266C9.31358 17.0877 9.48983 16.8338 9.49674 16.5046C9.48983 16.2027 9.33777 15.9627 9.04057 15.7843C8.75028 15.6059 8.29411 15.4619 7.67206 15.3521L4.85211 14.8582C3.22787 14.577 2.01141 14.0419 1.20275 13.253C0.394085 12.4642 -0.0067911 11.4489 0.000120552 10.2073C-0.0067911 9.10975 0.283499 8.18026 0.87099 7.41883C1.46539 6.65053 2.31207 6.06745 3.41102 5.66959C4.51689 5.26486 5.82665 5.0625 7.3403 5.0625C9.64189 5.0625 11.4562 5.53582 12.7832 6.48247C13.474 6.97267 13.9952 7.56036 14.3468 8.24553Z" fill="black"/>
<path d="M21.7584 12.1829V18.9132C21.7584 20.1061 20.781 21.0732 19.5754 21.0732H18.2184C17.0128 21.0732 16.0355 20.1061 16.0355 18.9132V2.16C16.0355 0.967064 17.0128 0 18.2185 0H19.3681C20.5737 0 21.551 0.967065 21.551 2.16V8.17675C21.551 8.22983 21.5945 8.27286 21.6482 8.27286C21.6894 8.27286 21.726 8.24705 21.7402 8.20877C22.1019 7.23114 22.692 6.46707 23.5105 5.91654C24.3468 5.34718 25.3524 5.0625 26.5274 5.0625C27.654 5.0625 28.632 5.31631 29.4614 5.82393C30.2977 6.33155 30.944 7.03125 31.4001 7.92302C31.8632 8.81479 32.0913 9.83689 32.0844 10.9893V18.9132C32.0844 20.1061 31.1071 21.0732 29.9015 21.0732H28.5445C27.3389 21.0732 26.3615 20.1061 26.3615 18.9132V12.1829C26.3684 11.4009 26.1715 10.787 25.7706 10.3411C25.3766 9.8952 24.8133 9.67226 24.0807 9.67226C23.6176 9.67226 23.2098 9.77515 22.8573 9.98094C22.5117 10.1799 22.2422 10.468 22.0487 10.8453C21.862 11.2157 21.7653 11.6616 21.7584 12.1829Z" fill="black"/>
<path d="M53.4729 21.0732C52.4532 21.0732 51.5693 20.3747 51.3439 19.3907L49.2319 10.1712C49.0468 9.36279 49.3454 8.52085 50.0006 8.00433L50.6337 7.5052C51.9207 6.49058 53.8363 7.19621 54.1395 8.79656L55.2842 14.8383C55.2909 14.8737 55.3222 14.8994 55.3586 14.8994C55.3945 14.8994 55.4254 14.8745 55.4328 14.8398L57.0896 6.98687C57.3009 5.98565 58.1928 5.26829 59.2265 5.26829H61.2529C62.2784 5.26829 63.1656 5.97465 63.3852 6.96587L65.1111 14.7581C65.1187 14.7925 65.1495 14.8171 65.1852 14.8171C65.2219 14.8171 65.2533 14.7911 65.2598 14.7554L66.6663 7.04464C66.8539 6.01631 67.7585 5.26829 68.8145 5.26829H69.9193C71.3389 5.26829 72.3808 6.58778 72.0375 7.95068L69.1445 19.4356C68.9022 20.3978 68.0287 21.0732 67.0264 21.0732H64.2388C63.2457 21.0732 62.3779 20.41 62.1268 19.4593L60.3346 12.6739C60.3223 12.6271 60.2796 12.5945 60.2307 12.5945C60.1818 12.5945 60.1391 12.6271 60.1268 12.6739L58.3346 19.4593C58.0835 20.41 57.2156 21.0732 56.2226 21.0732H53.4729Z" fill="black"/>
<path d="M83.3212 14.1585V7.42829C83.3212 6.23536 84.2985 5.26829 85.5041 5.26829H86.8611C88.0667 5.26829 89.044 6.23536 89.044 7.42829V18.9132C89.044 20.1061 88.0667 21.0732 86.8611 21.0732H85.1297C84.2912 21.0732 83.6115 20.4006 83.6115 19.5709V18.1642C83.6115 18.1114 83.5682 18.0686 83.5148 18.0686C83.4734 18.0686 83.4367 18.0948 83.4229 18.1334C83.0738 19.1109 82.4766 19.8781 81.6313 20.4352C80.7673 20.9977 79.7409 21.279 78.5521 21.279C77.4393 21.279 76.4648 21.0251 75.6285 20.5175C74.7991 20.0099 74.1529 19.3102 73.6898 18.4184C73.2336 17.5267 73.0021 16.5046 72.9951 15.3521V7.42829C72.9951 6.23536 73.9725 5.26829 75.1781 5.26829H76.5351C77.7407 5.26829 78.718 6.23536 78.718 7.42829V14.1585C78.7249 14.9405 78.9253 15.5545 79.3193 16.0004C79.7202 16.4463 80.28 16.6692 80.9988 16.6692C81.4757 16.6692 81.887 16.5697 82.2326 16.3708C82.5851 16.165 82.8546 15.8769 83.0412 15.5065C83.2348 15.1292 83.3281 14.6799 83.3212 14.1585Z" fill="black"/>
<path d="M92.6779 27C91.4723 27 90.4949 26.0329 90.4949 24.84V7.42829C90.4949 6.23536 91.4723 5.26829 92.6779 5.26829H94.7829C95.5525 5.26829 96.1763 5.88561 96.1763 6.6471V7.95296C96.1763 7.99325 96.2093 8.02591 96.2501 8.02591C96.2806 8.02591 96.3079 8.00727 96.3191 7.97918C96.5259 7.46226 96.8239 6.98737 97.2131 6.5545C97.614 6.10175 98.1116 5.74162 98.706 5.47408C99.3004 5.1997 99.9916 5.0625 100.779 5.0625C101.83 5.0625 102.829 5.34032 103.776 5.89596C104.73 6.4516 105.504 7.32622 106.098 8.51982C106.699 9.71341 107 11.2637 107 13.1707C107 14.9954 106.713 16.508 106.139 17.7085C105.573 18.9089 104.812 19.8041 103.859 20.3941C102.912 20.984 101.872 21.279 100.738 21.279C99.9916 21.279 99.3246 21.1589 98.7371 20.9188C98.1565 20.6719 97.6589 20.3392 97.2442 19.9207C96.8441 19.5035 96.5339 19.0335 96.3135 18.5107C96.3057 18.4923 96.2876 18.4802 96.2674 18.4802C96.24 18.4802 96.2178 18.5022 96.2178 18.5293V24.84C96.2178 26.0329 95.2405 27 94.0349 27H92.6779ZM96.0934 13.1707C96.0934 13.939 96.1936 14.6044 96.394 15.1669C96.6014 15.7226 96.8917 16.1547 97.2649 16.4634C97.6451 16.7652 98.0978 16.9162 98.6231 16.9162C99.1483 16.9162 99.5941 16.7687 99.9605 16.4737C100.334 16.1719 100.617 15.7431 100.811 15.1875C101.011 14.625 101.111 13.9527 101.111 13.1707C101.111 12.3887 101.011 11.7199 100.811 11.1643C100.617 10.6018 100.334 10.173 99.9605 9.87805C99.5941 9.57622 99.1483 9.4253 98.6231 9.4253C98.0978 9.4253 97.6451 9.57622 97.2649 9.87805C96.8917 10.173 96.6014 10.6018 96.394 11.1643C96.1936 11.7199 96.0934 12.3887 96.0934 13.1707Z" fill="black"/>
<path fill-rule="evenodd" clip-rule="evenodd" d="M40.8298 21.3398C45.0494 21.3398 48.4701 17.832 48.4701 13.5049C48.4701 9.17781 45.0494 5.67 40.8298 5.67C36.6102 5.67 33.1895 9.17781 33.1895 13.5049C33.1895 17.832 36.6102 21.3398 40.8298 21.3398ZM43.4692 13.6424C43.4692 15.0088 42.2875 16.1165 40.8298 16.1165C39.3721 16.1165 38.1904 15.0088 38.1904 13.6424C38.1904 12.2759 39.3721 11.1682 40.8298 11.1682C42.2875 11.1682 43.4692 12.2759 43.4692 13.6424Z" fill="#1E6CE0"/>
<path d="M38.5039 22.1081L34.6025 22.8616C34.0831 22.9619 33.6753 23.3608 33.568 23.8736C33.3836 24.7542 34.1372 25.5495 35.0372 25.4242L37.5101 25.0798C38.1379 24.9923 38.7231 25.412 38.8345 26.0296C38.9626 26.74 39.7055 27.1659 40.3921 26.9225L46.3949 24.7945C47.0809 24.5513 47.4382 23.8043 47.1932 23.1252C46.9474 22.4436 46.1885 22.0896 45.5006 22.3357L41.1253 23.9008C40.4846 24.13 39.7981 23.697 39.7376 23.0255C39.6828 22.4182 39.1088 21.9913 38.5039 22.1081Z" fill="#1E6CE0"/>
</svg>
