<svg width="60" height="65" viewBox="0 0 60 65" fill="none" xmlns="http://www.w3.org/2000/svg">
<g filter="url(#filter0_dd_183_2544)">
<path d="M27.884 8.26147C29.3863 6.96282 31.6137 6.96282 33.116 8.26147L37.5792 12.1199C38.2306 12.683 39.0464 13.0209 39.9052 13.0833L45.7895 13.511C47.77 13.655 49.345 15.23 49.489 17.2105L49.9167 23.0948C49.9791 23.9536 50.317 24.7694 50.8801 25.4208L54.7385 29.884C56.0372 31.3863 56.0372 33.6137 54.7385 35.116L50.8801 39.5792C50.317 40.2306 49.9791 41.0464 49.9167 41.9052L49.489 47.7895C49.345 49.77 47.77 51.345 45.7895 51.489L39.9052 51.9167C39.0464 51.9791 38.2306 52.317 37.5792 52.8801L33.116 56.7385C31.6137 58.0372 29.3863 58.0372 27.884 56.7385L23.4208 52.8801C22.7694 52.317 21.9536 51.9791 21.0948 51.9167L15.2105 51.489C13.23 51.345 11.655 49.77 11.511 47.7895L11.0833 41.9052C11.0209 41.0464 10.683 40.2306 10.1199 39.5792L6.26147 35.116C4.96282 33.6137 4.96282 31.3863 6.26147 29.884L10.1199 25.4208C10.683 24.7694 11.0209 23.9536 11.0833 23.0948L11.511 17.2105C11.655 15.23 13.23 13.655 15.2105 13.511L21.0948 13.0833C21.9536 13.0209 22.7694 12.683 23.4208 12.1199L27.884 8.26147Z" fill="black"/>
<path d="M28.5381 9.01758C29.6647 8.04385 31.3353 8.04385 32.4619 9.01758L36.9248 12.876C37.7391 13.5799 38.7595 14.003 39.833 14.0811L45.7168 14.5088C47.2022 14.6167 48.3833 15.7978 48.4912 17.2832L48.9189 23.167C48.997 24.2405 49.4201 25.2609 50.124 26.0752L53.9824 30.5381C54.9561 31.6647 54.9561 33.3353 53.9824 34.4619L50.124 38.9248C49.4201 39.7391 48.997 40.7595 48.9189 41.833L48.4912 47.7168C48.3833 49.2022 47.2022 50.3833 45.7168 50.4912L39.833 50.9189C38.7595 50.997 37.7391 51.4201 36.9248 52.124L32.4619 55.9824C31.3353 56.9561 29.6647 56.9561 28.5381 55.9824L24.0752 52.124C23.2609 51.4201 22.2405 50.997 21.167 50.9189L15.2832 50.4912C13.7978 50.3833 12.6167 49.2022 12.5088 47.7168L12.0811 41.833C12.003 40.7595 11.5799 39.7391 10.876 38.9248L7.01758 34.4619C6.04385 33.3353 6.04385 31.6647 7.01758 30.5381L10.876 26.0752C11.5799 25.2609 12.003 24.2405 12.0811 23.167L12.5088 17.2832C12.6167 15.7978 13.7978 14.6167 15.2832 14.5088L21.167 14.0811C22.2405 14.003 23.2609 13.5799 24.0752 12.876L28.5381 9.01758Z" stroke="#BBF7D0" stroke-width="2"/>
</g>
<path d="M38 27L27 38L22 33" stroke="#FAFAFA" stroke-width="3" stroke-linecap="round" stroke-linejoin="round"/>
<defs>
<filter id="filter0_dd_183_2544" x="3.28711" y="6.28711" width="54.4258" height="54.4258" filterUnits="userSpaceOnUse" color-interpolation-filters="sRGB">
<feFlood flood-opacity="0" result="BackgroundImageFix"/>
<feColorMatrix in="SourceAlpha" type="matrix" values="0 0 0 0 0 0 0 0 0 0 0 0 0 0 0 0 0 0 127 0" result="hardAlpha"/>
<feOffset dy="1"/>
<feGaussianBlur stdDeviation="1"/>
<feComposite in2="hardAlpha" operator="out"/>
<feColorMatrix type="matrix" values="0 0 0 0 0.0941176 0 0 0 0 0.0941176 0 0 0 0 0.105882 0 0 0 0.1 0"/>
<feBlend mode="normal" in2="BackgroundImageFix" result="effect1_dropShadow_183_2544"/>
<feColorMatrix in="SourceAlpha" type="matrix" values="0 0 0 0 0 0 0 0 0 0 0 0 0 0 0 0 0 0 127 0" result="hardAlpha"/>
<feOffset/>
<feGaussianBlur stdDeviation="0.5"/>
<feComposite in2="hardAlpha" operator="out"/>
<feColorMatrix type="matrix" values="0 0 0 0 0.0941176 0 0 0 0 0.0941176 0 0 0 0 0.105882 0 0 0 0.2 0"/>
<feBlend mode="normal" in2="effect1_dropShadow_183_2544" result="effect2_dropShadow_183_2544"/>
<feBlend mode="normal" in="SourceGraphic" in2="effect2_dropShadow_183_2544" result="shape"/>
</filter>
</defs>
</svg>
